<svg width="20" height="20" viewBox="0 0 20 20" fill="none" xmlns="http://www.w3.org/2000/svg">
<path fill-rule="evenodd" clip-rule="evenodd" d="M0.833252 2.91671C0.833252 1.76611 1.76599 0.833374 2.91658 0.833374H17.0833C18.2338 0.833374 19.1666 1.76611 19.1666 2.91671V7.08337C19.1666 8.23397 18.2338 9.16671 17.0833 9.16671H2.91658C1.76599 9.16671 0.833252 8.23397 0.833252 7.08337V2.91671ZM2.91658 2.50004C2.68647 2.50004 2.49992 2.68659 2.49992 2.91671V7.08337C2.49992 7.31349 2.68647 7.50004 2.91658 7.50004H17.0833C17.3134 7.50004 17.4999 7.31349 17.4999 7.08337V2.91671C17.4999 2.68659 17.3134 2.50004 17.0833 2.50004H2.91658Z" fill="#424551"/>
<path fill-rule="evenodd" clip-rule="evenodd" d="M0.833252 12.9167C0.833252 11.7661 1.76599 10.8334 2.91658 10.8334H17.0833C18.2338 10.8334 19.1666 11.7661 19.1666 12.9167V17.0834C19.1666 18.234 18.2338 19.1667 17.0833 19.1667H2.91658C1.76599 19.1667 0.833252 18.234 0.833252 17.0834V12.9167ZM2.91658 12.5C2.68647 12.5 2.49992 12.6866 2.49992 12.9167V17.0834C2.49992 17.3135 2.68647 17.5 2.91658 17.5H17.0833C17.3134 17.5 17.4999 17.3135 17.4999 17.0834V12.9167C17.4999 12.6866 17.3134 12.5 17.0833 12.5H2.91658Z" fill="#424551"/>
</svg>
